<svg xmlns="http://www.w3.org/2000/svg" viewBox="0 0 64 64" fill="none">
  <defs>
    <linearGradient id="g1" x1="8" y1="6" x2="56" y2="58" gradientUnits="userSpaceOnUse">
      <stop stop-color="#E8C97A"/>
      <stop offset="1" stop-color="#C9A84C"/>
    </linearGradient>
  </defs>
  <rect x="3" y="3" width="58" height="58" rx="14" fill="#0A0E1A" stroke="url(#g1)" stroke-width="2"/>
  <path d="M20 14c-5 0-9 4.2-9 9.4 0 4.2 1.8 8.7 4.1 13.4 1.5 3.2 3 6.5 4 9.9.9 2.8 2.1 6.3 5.2 6.3 2.4 0 3.7-2.4 4.6-4.2.6-1.3 1.1-2.1 2.1-2.1s1.5.8 2.1 2.1c.9 1.8 2.2 4.2 4.6 4.2 3.1 0 4.3-3.5 5.2-6.3 1-3.4 2.5-6.7 4-9.9 2.3-4.7 4.1-9.2 4.1-13.4C53 18.2 49 14 44 14c-3.7 0-6 1.8-7.7 3.1-1.4 1.1-2.4 1.9-4.3 1.9s-2.9-.8-4.3-1.9C26 15.8 23.7 14 20 14Z" fill="#0D1424" stroke="url(#g1)" stroke-width="2"/>
  <path d="M24 26c1.1 0 2 .9 2 2v4c0 1.1-.9 2-2 2s-2-.9-2-2v-4c0-1.1.9-2 2-2Zm8 0c1.1 0 2 .9 2 2v6c0 1.1-.9 2-2 2s-2-.9-2-2v-6c0-1.1.9-2 2-2Zm8 0c1.1 0 2 .9 2 2v4c0 1.1-.9 2-2 2s-2-.9-2-2v-4c0-1.1.9-2 2-2Z" fill="url(#g1)"/>
</svg>
