<svg xmlns="http://www.w3.org/2000/svg" viewBox="0 0 64 64" fill="none">
  <path d="M17 7c-5.4 0-10 4.6-10 10.4 0 4.8 2.2 9.8 4.8 15.4 1.8 3.8 3.6 7.8 4.9 11.9 1.1 3.6 2.6 8.3 6.6 8.3 3.1 0 4.7-3.2 5.8-5.5.8-1.7 1.4-2.8 2.9-2.8s2.1 1.1 2.9 2.8c1.1 2.3 2.7 5.5 5.8 5.5 4 0 5.5-4.7 6.6-8.3 1.3-4.1 3.1-8.1 4.9-11.9 2.6-5.6 4.8-10.6 4.8-15.4C57 11.6 52.4 7 47 7c-4.2 0-7.1 2.1-9.2 3.7C36.2 11.9 34.9 13 32 13s-4.2-1.1-5.8-2.3C24.1 9.1 21.2 7 17 7Z" fill="#0A0E1A" stroke="#C9A84C" stroke-width="3"/>
  <path d="M22 19c1.7 0 3 1.3 3 3v5c0 1.7-1.3 3-3 3s-3-1.3-3-3v-5c0-1.7 1.3-3 3-3Zm10 0c1.7 0 3 1.3 3 3v7c0 1.7-1.3 3-3 3s-3-1.3-3-3v-7c0-1.7 1.3-3 3-3Zm10 0c1.7 0 3 1.3 3 3v5c0 1.7-1.3 3-3 3s-3-1.3-3-3v-5c0-1.7 1.3-3 3-3Z" fill="#C9A84C"/>
</svg>
