<svg xmlns="http://www.w3.org/2000/svg" viewBox="0 0 64 64" fill="none">
  <defs>
    <linearGradient id="gold" x1="8" y1="10" x2="56" y2="54" gradientUnits="userSpaceOnUse">
      <stop stop-color="#E8C97A"/>
      <stop offset="1" stop-color="#C9A84C"/>
    </linearGradient>
  </defs>
  <rect x="4" y="6" width="56" height="52" rx="10" fill="#0A0E1A" stroke="url(#gold)" stroke-width="2"/>
  <rect x="10" y="13" width="20" height="38" rx="6" fill="#111827" stroke="#2A3448"/>
  <circle cx="20" cy="24" r="6" fill="#1A2435" stroke="url(#gold)"/>
  <path d="M17.2 24.1c-.6-2.4.6-5.1 2.8-5.1s3.4 2.7 2.8 5.1c-.4 1.5-1.1 2.8-1.8 4.1-.4.8-.8 1.7-1 2.5-.2.5-.4 1.3-1 1.3-.5 0-.8-.5-1.1-1.1-.2-.4-.4-.7-.7-.7s-.5.3-.7.7c-.3.6-.6 1.1-1.1 1.1-.6 0-.8-.8-1-1.3-.3-.8-.6-1.7-1-2.5-.7-1.3-1.4-2.6-1.8-4.1Z" fill="url(#gold)" opacity=".9"/>
  <rect x="34" y="15" width="20" height="4" rx="2" fill="#E2E8F0" opacity=".9"/>
  <rect x="34" y="23" width="14" height="3" rx="1.5" fill="#94A3B8"/>
  <rect x="34" y="31" width="18" height="3" rx="1.5" fill="#94A3B8"/>
  <rect x="34" y="39" width="12" height="3" rx="1.5" fill="#94A3B8"/>
  <rect x="34" y="46" width="8" height="4" rx="2" fill="url(#gold)"/>
</svg>
